<?xml version="1.0" encoding="utf-8"?>
<!-- Generator: Adobe Illustrator 17.1.0, SVG Export Plug-In . SVG Version: 6.00 Build 0)  -->
<!DOCTYPE svg PUBLIC "-//W3C//DTD SVG 1.1//EN" "http://www.w3.org/Graphics/SVG/1.1/DTD/svg11.dtd">
<svg version="1.1" id="Layer_1" xmlns="http://www.w3.org/2000/svg" xmlns:xlink="http://www.w3.org/1999/xlink" x="0px" y="0px"
	 viewBox="0 0 550 453" enable-background="new 0 0 550 453" xml:space="preserve">
<path fill="#4F748A" d="M539.062,143.781l-47.197-72.07c4.261-2.078,7.106-5.659,8.652-10.188c-1.21,0.951-2.588,1.721-4.1,2.25
	c-8.247,2.876-17.499-2.233-20.687-11.379c-1.682-4.824-1.287-9.796,0.644-13.857c5.228-6.115,8.362-9.984,8.362-9.984
	s-4.585,2.871-11.562,7.06c-0.135,0.082-0.269,0.156-0.398,0.238c-15.526,9.313-42.419,24.862-57.568,30.266
	c-42.637,15.186-67.239-19.426-103.433-10.56c-19.907,4.881-30.186,34.14-30.186,34.14s13.362-15.135,28.467-20.894
	c28.461-10.852,65.952,18.689,94.705,12.339c17.858-3.955,56.657-29.954,56.657-29.954s-15.594,14.537-23.314,22.615
	c-3.924,4.082-11.452,10.686-22.989,18.258c-54.471,11.116-83.74-12.022-83.74-12.022s24.64,24.906,76.326,16.669
	c-4.833,2.92-10.235,5.896-16.195,8.91c-53.389,7.976-84.9-15.95-84.9-15.95s26.957,24.011,74.518,20.903
	c-3.637,1.677-7.406,3.321-11.409,4.945c-38.908,15.806-81.542-7.918-81.542-7.918s10.588,10.455,28.323,16.416
	c17.74,5.942,47.357,8.05,82.122-12c20.852-12.011,47.669-39.64,65.8-59.833c0.004,2.402,0.36,4.863,1.204,7.297
	c0.055,0.155,0.125,0.293,0.185,0.454l-31.588,72.505l38.447-62.958c4.878,3.854,11.189,5.285,17.065,3.257
	c0.52-0.19,1.018-0.418,1.523-0.644l36.592,71.444l-96.963-2.01l95.496,13.385c0,0-8.114,13.848-29.135,18.621
	c-35.345,8.037-63.024-6.701-63.024-6.701s27.215,26.772,76.883,15.788C536.44,176.997,545,143.893,545,143.893"/>
<path fill="#4F748A" d="M151.799,162.695c40.126,0.013,64.751-16.57,77.158-30.591c12.409-14.015,16.37-28.358,16.37-28.358
	s-25.11,41.845-66.736,47.547c-4.272,0.585-8.374,1.05-12.351,1.413c42.785-21.043,54.179-55.315,54.179-55.315
	s-15.394,36.455-65.64,56.199c-6.685,0.383-12.847,0.465-18.493,0.372c48.916-18.67,57.857-52.551,57.857-52.551
	s-13.835,34.662-66.593,52.214c-13.768-0.804-23.58-2.767-29.011-4.364c-10.732-3.146-31.497-7.969-31.497-7.969
	s46.596,3.175,64.032-2.291c28.098-8.854,45.855-53.162,75.945-57.979c15.959-2.533,35.087,3.916,35.087,3.916
	s-23.495-20.228-43.185-14.522c-35.796,10.358-39.854,52.656-84.392,60.776c-23.153,4.213-78.97,2.13-78.97,2.13
	s5.446,2.097,14.143,5.161c-9.098,3.661-13.567,14.642-9.952,25.023c0.054,0.161,0.127,0.299,0.185,0.454L8.34,236.469
	l38.462-62.962c4.872,3.854,11.178,5.287,17.052,3.245c0.526-0.185,1.03-0.393,1.521-0.632l36.599,71.443L5,245.533l95.51,13.377
	c0,0-8.119,13.863-29.131,18.622c-35.356,8.052-63.039-6.679-63.039-6.679s27.23,26.75,76.887,15.766
	c25.341-5.601,33.909-38.699,33.909-38.699l-5.951-0.119l-47.121-72.066c4.255-2.101,7.036-5.653,8.591-10.176
	c-1.222,0.942-2.596,1.719-4.109,2.232c-8.247,2.873-17.506-2.22-20.682-11.356c-2.149-6.179-0.953-12.581,2.571-16.999
	C77.184,148.042,123.464,162.692,151.799,162.695"/>
<path fill="#4F748A" d="M246.321,73.637c-0.731-1.17-1.152-2.423-1.152-3.747c0-5.949,8.115-10.763,18.142-10.763
	c10.014,0,18.144,4.814,18.144,10.763c0,1.325-0.415,2.577-1.148,3.747c5.611-2.613,9.167-6.505,9.167-10.858
	c0-6.107-7.047-11.292-16.924-13.331c0.071-0.058,0.146-0.102,0.217-0.16c-0.226,0.046-0.462,0.041-0.688,0.075
	c-1.979-0.387-4.064-0.626-6.231-0.746c-6.72-2.618-11.675-10.469-11.675-20.423c0-12.063,7.224-20.526,16.121-20.526
	c0.845,0,1.664,0.131,2.474,0.287c-2.878-2.411-6.25-3.841-9.894-3.841c-10.352,0-19.626,10.047-19.626,24.08
	c0,9.328,4.632,16.947,10.165,21.363c-9.538,2.136-16.274,7.248-16.274,13.223C237.138,67.132,240.715,71.024,246.321,73.637"/>
<path fill="#4F748A" d="M298.034,152.247c-15.826,0.496-19.357,19.369-19.357,19.369s5.291,8.216,15.845,9.395
	c10.558,1.171,18.769-7.637,18.769-7.637s-5.671,0.323-8.779,0.545c-3.967,0.28-10.567-1.716-11.755-4.059
	c-1.169-2.355,4.105-7.047,11.739-7.047c7.622,0,20.525,6.449,21.707,21.706c0.9,11.791-6.218,17.941-14.666,23.492
	c-0.173,0.1-0.335,0.243-0.492,0.374c-7.285-4.696-16.85-6.282-26.486-6.993c1.555-0.488,3.254-1.121,4.853-1.913
	c4.609-2.317,11.991-7.394,11.991-7.394s-2.307,1.378-12.455,5.539c-4.89,2.004-8.701,2.934-11.352,3.364
	c-1.442-0.067-2.852-0.125-4.264-0.187l0.277-121.092c3.101-1.446,5.065-3.52,5.065-5.843c0-4.336-6.808-7.832-15.198-7.832
	c-8.399,0-15.202,3.496-15.202,7.832c0,2.537,2.343,4.793,5.981,6.236l0.938,119.365c-15.087-1.696-23.013-4.138-23.013-4.138
	s8.075,6.338,33.229,7.837c70.093,4.169,45.513,53.987,40.153,63.52c-2.541-1.347-5.443-2.535-8.782-3.505
	c-7.198-2.112-15.954-2.967-24.569-3.822l0.535-34.463c28.237,7.299,21.925,23.595,21.925,23.595s24.045-25.821-34.027-32.264
	c-13.421-1.493-34.405-3.468-42.246-8.217c-9.163-5.551-15.57-11.701-14.666-23.492c1.168-15.257,14.081-21.706,21.714-21.706
	c7.62,0,12.906,4.691,11.727,7.047c-1.171,2.343-5.709,4.146-10.626,4.23c-3.199,0.053-9.905-0.717-9.905-0.717
	s8.208,8.808,18.775,7.637c10.561-1.179,15.842-9.395,15.842-9.395s-3.533-18.873-19.365-19.369
	c-18.785-0.578-46.351,12.905-41.659,39.327c2.95,16.612,11.793,24.426,22.763,27.768c-3.685,4.977-10.193,15.204-9.855,25.055
	c0.409,11.815,6.274,23.075,17.12,29.003c-3.077,4.671-10.449,17.065-10.077,27.919c0.374,10.933,7.999,20.887,17.578,26.949
	c-3.179,5.379-9.498,17.385-9.367,27.65c0.131,9.908,3.824,17.848,9.565,23.321c-1.898,3.107-4.444,8.37-5.454,15.425
	c-2.348,16.426,12.318,26.997,12.318,26.997s-7.583-15.239-6.61-22.648c0.863-6.548,4.58-11.833,6.856-14.771
	c3.845,1.926,8.126,3.091,12.653,3.367c3.042,0.156,5.815,0.449,8.335,0.834c-2.526,0.649-5.693,1.926-8.527,4.495
	c-5.3,4.815-2.758,13.617-2.758,13.617s0.899-7.273,8.103-11.597c1.171-0.705,2.291-1.236,3.387-1.733l0.281,43.574l7.457,11.088
	l7.32-11.552l0.277-43.128c9.419,5.009,10.157,11.435,10.157,11.435s4.371-10.984-14.589-17.825
	c-4.321-1.539-9.818-3.067-16.863-4.004c-16.573-2.199-23.861-20-21.343-32.18c2.196-10.678,5.774-15.577,8.636-17.843
	c2.416,0.745,6.385,1.37,8.751,1.576c3.477,0.298,6.591,0.707,9.542,1.169l0.241,28.002c-3.019-1.224-5.544-3.037-7.207-5.952
	c-3.378-5.935-3.688-17.755-3.688-17.755s-4.334,12.389-2.595,17.755c3.275,10.106,14.17,13.429,27.844,14.566
	c38.761,3.235,21.685,48.489,21.685,48.489s15.649-21.003,9.932-37.7c6.306-6.922,35.104-41.747-3.01-62.048
	c-7.772-4.137-17.657-4.892-27.078-5.829l0.51-32.291c23.059,7.866,20.389,22.073,20.389,22.073s23.468-26.614-50.525-32.49
	c-18.379-1.45-28.36-18.409-27.517-32.066c0.631-9.977,6.209-15.817,10.466-18.885c2.36,0.138,4.747,0.166,7.145,0.105
	c8.662-0.208,16.111,0.027,22.577,0.568l0.497,35.18c-7.601-1.415-13.945-3.653-17.384-7.947
	c-5.321-6.615-4.614-22.141-4.614-22.141s-6.571,13.867-5.012,20.755c1.538,6.881,4.516,14.202,34.092,15.257
	c68.628,2.445,46.608,64.652,46.608,64.652s28.326-43.698-3.278-60.949c5.03-5.331,22.401-25.587,15.748-44.787
	c-0.485-1.372-1.038-2.66-1.667-3.853c9.51-3.843,16.982-11.679,19.647-26.671C344.39,165.152,316.815,151.669,298.034,152.247
	 M223.088,295.461c2.294-11.113,6.466-15.981,9.718-18.118c1.496,0.188,3.012,0.335,4.618,0.357
	c6.808,0.129,12.745,0.598,17.991,1.282l0.528,33.333c-5.201-1.639-9.544-4.259-12.225-8.966
	c-4.225-7.384-4.621-22.167-4.621-22.167s-5.995,11.095-3.918,21.435c1.763,8.772,14.999,16.901,32.074,18.276
	c61.014,4.941,39.765,51.784,34.664,61.499c-1.486-3.951-4.188-7.654-8.654-10.769c-5.838-4.048-13.776-4.715-21.451-5.342
	l0.155-26.93c18.629,6.6,18.597,16.566,18.597,16.566s7.838-24.209-49.941-30.908C227.455,323.48,220.595,307.64,223.088,295.461z"
	/>
<g>
</g>
<g>
</g>
<g>
</g>
<g>
</g>
<g>
</g>
<g>
</g>
</svg>
